<?xml version="1.0" encoding="UTF-8"?>
<svg xmlns="http://www.w3.org/2000/svg" xmlns:xlink="http://www.w3.org/1999/xlink" xmlns:svgjs="http://svgjs.com/svgjs" version="1.1" width="512" height="512" x="0" y="0" viewBox="0 0 512 512" style="enable-background:new 0 0 512 512" xml:space="preserve" class="">
  <g>
    <g xmlns="http://www.w3.org/2000/svg">
      <path d="m383.829 73.388h-255.658c-1.219 0-2.262-.872-2.479-2.071l-4.339-24.031h269.294l-4.339 24.031c-.217 1.199-1.261 2.071-2.479 2.071z" fill="#b9c1cb" data-original="#b9c1cb" style=""/>
      <path d="m401.54 7.5h-291.08c-1.391 0-2.519 1.128-2.519 2.519v34.747c0 1.391 1.128 2.519 2.519 2.519h291.08c1.391 0 2.519-1.128 2.519-2.519v-34.747c0-1.391-1.128-2.519-2.519-2.519z" fill="#eb3b5a" data-original="#e49542" style="" class=""/>
      <path d="m383.829 438.612h-255.658c-1.219 0-2.262.872-2.479 2.072l-4.339 24.031h269.294l-4.339-24.031c-.217-1.2-1.261-2.072-2.479-2.072z" fill="#b9c1cb" data-original="#b9c1cb" style=""/>
      <path d="m401.54 504.5h-291.08c-1.391 0-2.519-1.128-2.519-2.519v-34.747c0-1.391 1.128-2.519 2.519-2.519h291.08c1.391 0 2.519 1.128 2.519 2.519v34.747c0 1.391-1.128 2.519-2.519 2.519z" fill="#eb3b5a" data-original="#e49542" style="" class=""/>
      <path d="m289.751 243.641 26.38-23.708c15.317-13.766 26.226-31.749 31.358-51.693l24.408-94.852h-231.794l24.408 94.852c5.132 19.944 16.041 37.927 31.358 51.693l26.38 23.708c7.346 6.602 7.346 18.116 0 24.718l-26.38 23.708c-15.317 13.766-26.226 31.749-31.358 51.693l-24.408 94.852h231.794l-24.408-94.852c-5.132-19.944-16.041-37.927-31.358-51.693l-26.38-23.708c-7.345-6.602-7.345-18.116 0-24.718z" fill="#ecf4ff" data-original="#ecf4ff" style="" class=""/>
      <path d="m316.131 292.067-26.38-23.708c-7.346-6.602-7.346-18.116 0-24.718l26.38-23.708c15.317-13.766 26.226-31.749 31.358-51.693l24.408-94.852h-45.147l-19.261 74.852c-5.132 19.944-16.041 37.927-31.358 51.693l-26.38 23.708c-7.346 6.602-7.346 18.116 0 24.718l26.38 23.708c15.317 13.766 26.226 31.749 31.358 51.693l2.094 8.139c11.303 43.925-21.868 86.713-67.224 86.713h-97.11l-5.147 20h231.794l-24.408-94.852c-5.131-19.944-16.04-37.927-31.357-51.693z" fill="#ddeafb" data-original="#ddeafb" style="" class=""/>
      <path d="m285 314.38c7.787 0 15.243 3.458 20.036 9.596 6.267 8.026 10.829 17.27 13.399 27.261l13.773 53.525c.502 1.951-.971 3.851-2.985 3.851h-146.447c-2.014 0-3.487-1.9-2.985-3.851l13.774-53.525c2.508-9.746 6.91-18.781 12.942-26.668 4.891-6.396 12.454-10.187 20.506-10.187z" fill="#fed330" data-original="#f9efaf" style="" class=""/>
      <path d="m329.223 408.612c2.014 0 3.487-1.9 2.985-3.851l-13.773-53.525c-1.997-7.762-5.197-15.073-9.463-21.713l.611 2.375c7.986 31.036-6.231 61.505-31.261 76.713h50.901z" fill="#f7b731" data-original="#f6e781" style="" class=""/>
      <path d="m215.923 197.62 26.378 23.707c6.61 5.94 11.323 13.605 13.699 22.008 2.376-8.403 7.089-16.067 13.698-22.007l26.38-23.709c8.999-8.087 15.821-18.129 20.006-29.363 1.351-3.628-1.35-7.493-5.221-7.493h-109.726c-3.872 0-6.573 3.864-5.221 7.493 4.185 11.234 11.007 21.277 20.007 29.364z" fill="#fed330" data-original="#f9efaf" style="" class=""/>
      <path d="m276.131 199.933-26.38 23.708c-.97.872-1.812 1.829-2.525 2.849 4.057 4.965 7.039 10.708 8.774 16.845 2.376-8.403 7.089-16.067 13.698-22.007l26.38-23.709c8.999-8.087 15.821-18.129 20.006-29.363 1.351-3.628-1.35-7.492-5.221-7.492h-7.453c-5.929 14.93-15.243 28.352-27.279 39.169z" fill="#f7b731" data-original="#f6e781" style="" class=""/>
      <path d="m217.234 262.781-26.379 23.708c-16.469 14.8-28.09 33.958-33.608 55.402l-22.959 89.221h-6.117c-4.854 0-9 3.467-9.859 8.238l-3.226 17.865h-4.625c-5.524 0-10.019 4.495-10.019 10.019v34.747c0 5.524 4.494 10.019 10.019 10.019h291.08c5.524 0 10.019-4.495 10.019-10.019v-34.747c0-5.524-4.494-10.019-10.019-10.019h-4.625l-3.225-17.86c-.86-4.776-5.007-8.243-9.86-8.243h-6.118l-22.958-89.221c-5.519-21.444-17.14-40.602-33.608-55.402l-26.38-23.708c-1.949-1.752-3.022-4.16-3.022-6.78s1.073-5.029 3.023-6.781l26.379-23.708c16.469-14.8 28.091-33.958 33.608-55.402l7.685-29.864c1.032-4.012-1.383-8.1-5.395-9.132-4.017-1.034-8.101 1.383-9.133 5.394l-7.685 29.864c-4.778 18.572-14.844 35.165-29.108 47.984l-26.378 23.708c-5.083 4.567-7.997 11.105-7.997 17.938s2.914 13.37 7.996 17.937l26.379 23.708c14.265 12.819 24.33 29.412 29.108 47.984l21.996 85.482h-212.446l21.997-85.483c4.778-18.573 14.844-35.165 29.108-47.984l26.378-23.708c5.082-4.567 7.997-11.105 7.997-17.938s-2.915-13.37-7.996-17.937l-26.38-23.708c-14.264-12.819-24.329-29.412-29.107-47.984l-21.997-85.482h212.445l-5.326 20.699c-1.032 4.011 1.384 8.1 5.395 9.132 4.002 1.032 8.098-1.375 9.133-5.395l6.287-24.436h6.118c4.854 0 9-3.467 9.859-8.238l3.226-17.865h4.625c5.524 0 10.019-4.495 10.019-10.019v-34.748c.001-5.524-4.494-10.019-10.018-10.019h-291.08c-5.524 0-10.019 4.495-10.019 10.019v34.747c0 5.524 4.494 10.019 10.019 10.019h4.625l3.225 17.86c.86 4.776 5.007 8.243 9.86 8.243h6.117l22.959 89.221c5.518 21.443 17.14 40.602 33.608 55.402l26.38 23.709c1.949 1.752 3.022 4.16 3.022 6.78s-1.071 5.028-3.022 6.781zm179.325 234.219h-281.118v-24.785h281.117v24.785zm-14.887-39.785h-251.344l2.005-11.103h247.334zm-251.344-402.43h26.656c4.143 0 7.5-3.358 7.5-7.5s-3.357-7.5-7.5-7.5c-8.708 0-32.913 0-41.543 0v-24.785h281.117v24.785c-145.26 0-56.984 0-204.574 0-4.143 0-7.5 3.358-7.5 7.5s3.357 7.5 7.5 7.5h189.687l-2.005 11.103h-7.586c-.129-.003-.257-.003-.384 0-14.047 0 48.506 0-239.364 0z" fill="#000000" data-original="#000000" style="" class=""/>
      <path d="m226.877 408.612c0 4.142 3.357 7.5 7.5 7.5h94.846c6.914 0 11.973-6.519 10.249-13.22l-13.772-53.524c-2.832-11.001-7.795-21.098-14.751-30.007-6.102-7.815-15.802-12.48-25.948-12.48l-57.988.001c-10.282 0-20.176 4.909-26.464 13.131-6.693 8.753-11.487 18.63-14.247 29.355l-13.773 53.525c-1.722 6.695 3.33 13.22 10.249 13.22h16.601c4.143 0 7.5-3.358 7.5-7.5s-3.357-7.5-7.5-7.5h-10.902l12.354-48.007c2.256-8.767 6.17-16.835 11.636-23.981 3.468-4.536 8.907-7.244 14.548-7.244l57.985-.002c5.563 0 10.844 2.509 14.125 6.712 5.68 7.274 9.733 15.522 12.047 24.514l12.353 48.006h-89.147c-4.144.001-7.501 3.359-7.501 7.501z" fill="#000000" data-original="#000000" style="" class=""/>
      <path d="m323.112 170.875c1.49-4 .924-8.484-1.514-11.995-2.443-3.517-6.457-5.616-10.736-5.616h-109.724c-4.279 0-8.293 2.1-10.736 5.616-2.438 3.51-3.004 7.994-1.514 11.995 4.591 12.325 12.206 23.502 22.021 32.324l26.379 23.708c5.255 4.722 9.117 10.762 11.212 17.515v44.958c0 4.142 3.357 7.5 7.5 7.5s7.5-3.358 7.5-7.5v-44.958c2.095-6.754 5.957-12.792 11.212-17.514l26.379-23.709c9.815-8.821 17.43-19.998 22.021-32.324zm-32.048 21.166-26.379 23.709c-3.312 2.976-6.223 6.328-8.686 9.979-2.463-3.651-5.374-7.004-8.686-9.98l-26.378-23.707c-7.318-6.577-13.139-14.753-16.949-23.778h104.025c-3.81 9.027-9.629 17.201-16.947 23.777z" fill="#000000" data-original="#000000" style="" class=""/>
    </g>
  </g>
</svg>
