<?xml version="1.0" encoding="utf-8"?>
<!-- Generator: Adobe Illustrator 25.0.1, SVG Export Plug-In . SVG Version: 6.00 Build 0)  -->
<svg version="1.1" id="Layer_1" xmlns="http://www.w3.org/2000/svg" xmlns:xlink="http://www.w3.org/1999/xlink" x="0px" y="0px"
	 viewBox="0 0 512 512" style="enable-background:new 0 0 512 512;" xml:space="preserve">
<style type="text/css">
	.st0{fill:#FA8231;}
	.st1{fill:#D77D41;}
	.st2{fill:#FED330;}
	.st3{fill:#F7B731;}
	.st4{fill:#FC5C65;}
	.st5{fill:#C71E54;}
	.st6{fill:#B9CFDF;}
	.st7{fill:#90ABBD;}
	.st8{fill:#56788B;}
	.st9{fill:#415E6F;}
</style>
<g>
	<path class="st0" d="M504.5,204.1v280.2c0,11.2-9,20.2-20.2,20.2H27.7c-11.1,0-20.2-9-20.2-20.2V204.1c0-11.2,9-20.2,20.2-20.2
		h456.7C495.5,183.9,504.5,192.9,504.5,204.1z"/>
	<path class="st1" d="M504.5,204.1v280.2c0,11.2-9,20.2-20.2,20.2H27.7c-11.1,0-20.2-9-20.2-20.2v-30.1c0,11.2,9,20.2,20.2,20.2
		h428.2c11.1,0,20.2-9,20.2-20.2V204.1c0-11.2-9-20.2-20.2-20.2h28.5C495.5,183.9,504.5,192.9,504.5,204.1z"/>
	<path class="st2" d="M476,251.3v185.7c-20.6,0-37.3,16.7-37.3,37.4H73.3c0-11.1-4.9-21.2-12.6-28c-6.6-5.8-15.2-9.4-24.7-9.4V251.3
		c20.6,0,37.3-16.7,37.3-37.4h365.4c0,9.5,3.5,18.2,9.4,24.8C454.9,246.5,464.9,251.3,476,251.3L476,251.3z"/>
	<path class="st3" d="M476,251.3v185.7c-20.6,0-37.3,16.7-37.3,37.4H73.3c0-11.1-4.9-21.2-12.6-28h363.2c0-13.3,10.8-24.1,24.2-24.1
		V238.7C454.9,246.5,464.9,251.3,476,251.3z"/>
	<g>
		<path class="st4" d="M504.5,87.9c0,11.5-9.3,20.8-20.8,20.8H28.3c-5.8,0-11-2.3-14.7-6.1c-3.8-3.8-6.1-9-6.1-14.7
			c0-7.3,6-13.3,13.3-13.3h470.4c3.7,0,7,1.5,9.4,3.9S504.5,84.2,504.5,87.9L504.5,87.9z"/>
		<path class="st5" d="M504.5,87.9c0,11.5-9.3,20.8-20.8,20.8h-30c11.5,0,20.8-9.3,20.8-20.8c0-3.7-1.5-7-3.9-9.4s-5.7-3.9-9.4-3.9
			h30c3.7,0,7,1.5,9.4,3.9S504.5,84.2,504.5,87.9z"/>
	</g>
	<g>
		<g>
			<path class="st6" d="M92.2,108.8h30v75h-30V108.8z"/>
			<path class="st7" d="M107.2,108.8h15v75h-15V108.8z"/>
		</g>
		<g>
			<g>
				<path class="st6" d="M122.2,22.5v32h-30v-32c0-8.3,6.7-15,15-15c4.1,0,7.9,1.7,10.6,4.4C120.5,14.6,122.2,18.4,122.2,22.5z"/>
				<path class="st7" d="M122.2,22.5v32h-15v-47c4.1,0,7.9,1.7,10.6,4.4C120.5,14.6,122.2,18.4,122.2,22.5z"/>
			</g>
			<g>
				<path class="st8" d="M150.8,59.2v15.4h-90V59.2c0-8,6.5-14.6,14.6-14.6h60.9C144.3,44.6,150.8,51.1,150.8,59.2L150.8,59.2z"/>
				<path class="st9" d="M150.8,59.2v15.4h-30V59.2c0-8-6.5-14.6-14.6-14.6h30C144.3,44.6,150.8,51.1,150.8,59.2L150.8,59.2z"/>
			</g>
		</g>
	</g>
	<g>
		<g>
			<path class="st6" d="M392.6,108.8h30v75h-30V108.8z"/>
			<path class="st7" d="M407.6,108.8h15v75h-15V108.8z"/>
		</g>
		<g>
			<g>
				<path class="st6" d="M422.6,22.5v32h-30v-32c0-8.3,6.7-15,15-15c4.1,0,7.9,1.7,10.6,4.4C420.9,14.6,422.6,18.4,422.6,22.5z"/>
				<path class="st7" d="M422.6,22.5v32h-15v-47c4.1,0,7.9,1.7,10.6,4.4C420.9,14.6,422.6,18.4,422.6,22.5z"/>
			</g>
			<g>
				<path class="st8" d="M451.2,59.2v15.4h-90V59.2c0-8,6.5-14.6,14.6-14.6h60.9C444.7,44.6,451.2,51.1,451.2,59.2z"/>
				<path class="st9" d="M451.2,59.2v15.4h-30V59.2c0-8-6.5-14.6-14.6-14.6h30C444.7,44.6,451.2,51.1,451.2,59.2z"/>
			</g>
		</g>
	</g>
</g>
<g>
	<path d="M484.3,176.4h-54.2v-60.1h53.6c15.6,0,28.3-12.7,28.3-28.4c0-11.5-9.3-20.8-20.8-20.8h-32.5v-8c0-12.2-9.9-22.1-22.1-22.1
		h-6.6V22.5C430.1,10.1,420,0,407.6,0s-22.5,10.1-22.5,22.5v14.6h-9.3c-12.2,0-22.1,9.9-22.1,22.1v8h-27.3c-4.1,0-7.5,3.4-7.5,7.5
		s3.4,7.5,7.5,7.5h164.8c3.2,0,5.8,2.6,5.8,5.8c0,7.4-6,13.4-13.3,13.4H28.3c-7.4,0-13.3-6-13.3-13.4c0-3.2,2.6-5.8,5.8-5.8h270.9
		c4.1,0,7.5-3.4,7.5-7.5s-3.4-7.5-7.5-7.5H158.3v-8c0-12.2-9.9-22.1-22.1-22.1h-6.6V22.5c0-12.4-10.1-22.5-22.5-22.5
		S84.7,10.1,84.7,22.5v14.6h-9.3c-12.2,0-22.1,9.9-22.1,22.1v8H20.8C9.3,67.1,0,76.4,0,87.9c0,15.6,12.7,28.4,28.3,28.4h56.3v60.1
		h-57C12.4,176.4,0,188.8,0,204.1v91.8c0,4.1,3.4,7.5,7.5,7.5s7.5-3.4,7.5-7.5v-91.8c0-7,5.7-12.7,12.7-12.7h456.7
		c7,0,12.7,5.7,12.7,12.7v280.2c0,7-5.7,12.7-12.7,12.7H364.6c-4.1,0-7.5,3.4-7.5,7.5s3.4,7.5,7.5,7.5h119.7
		c15.3,0,27.7-12.4,27.7-27.7V204.1C512,188.8,499.6,176.4,484.3,176.4L484.3,176.4z M400.1,22.5c0-4.1,3.4-7.5,7.5-7.5
		s7.5,3.4,7.5,7.5v14.6h-15V22.5z M443.7,67.1h-75v-8c0-3.9,3.2-7.1,7.1-7.1h60.9c3.9,0,7.1,3.2,7.1,7.1L443.7,67.1L443.7,67.1z
		 M99.7,22.5c0-4.1,3.4-7.5,7.5-7.5s7.5,3.4,7.5,7.5v14.6h-15V22.5z M68.3,59.1c0-3.9,3.2-7.1,7.1-7.1h60.9c3.9,0,7.1,3.2,7.1,7.1v8
		h-75L68.3,59.1L68.3,59.1z M114.7,176.4h-15v-60.1h15V176.4z M385.1,176.4H129.7v-60.1h255.4V176.4z M415.1,176.4h-15v-60.1h15
		V176.4z"/>
	<path d="M329.7,497h-302c-7,0-12.7-5.7-12.7-12.7V331.1c0-4.1-3.4-7.5-7.5-7.5S0,326.9,0,331.1v153.2C0,499.6,12.4,512,27.7,512
		h302c4.1,0,7.5-3.4,7.5-7.5S333.8,497,329.7,497z"/>
	<path d="M80.2,221.4h33.6c4.1,0,7.5-3.4,7.5-7.5s-3.4-7.5-7.5-7.5H73.3c-4.1,0-7.5,3.4-7.5,7.5c0,16.5-13.4,29.9-29.8,29.9
		c-4.1,0-7.5,3.4-7.5,7.5v185.7c0,4.1,3.4,7.5,7.5,7.5c16.4,0,29.8,13.4,29.8,29.9c0,4.1,3.4,7.5,7.5,7.5h365.4
		c4.1,0,7.5-3.4,7.5-7.5c0-16.5,13.4-29.9,29.8-29.9c4.1,0,7.5-3.4,7.5-7.5V251.3c0-4.1-3.4-7.5-7.5-7.5
		c-16.4,0-29.8-13.4-29.8-29.9c0-4.1-3.4-7.5-7.5-7.5H148.8c-4.1,0-7.5,3.4-7.5,7.5s3.4,7.5,7.5,7.5h283.1
		c3.2,18.7,18,33.6,36.7,36.8v172c-18.7,3.2-33.5,18-36.7,36.8H80.2c-3.2-18.7-18-33.6-36.7-36.8v-172C62.2,255,77,240.2,80.2,221.4
		L80.2,221.4z"/>
</g>
<g>
	<path d="M156.7,297.2H141v23.9c0,3.4-0.8,6-2.4,7.8s-3.6,2.7-6.1,2.7c-2.6,0-4.6-0.9-6.2-2.6c-1.6-1.7-2.4-4.3-2.4-7.7v-65.1
		c0-3.8,0.9-6.5,2.6-8.1s4.5-2.4,8.2-2.4h22c6.5,0,11.5,0.5,15,1.5c3.5,1,6.4,2.6,9,4.8c2.5,2.2,4.4,5,5.7,8.2c1.3,3.2,2,6.9,2,10.9
		c0,8.6-2.7,15.1-8,19.6S167.1,297.2,156.7,297.2z M152.5,258.5H141v25.8h11.5c4,0,7.4-0.4,10.1-1.3c2.7-0.8,4.8-2.2,6.2-4.1
		c1.4-1.9,2.1-4.4,2.1-7.5c0-3.7-1.1-6.8-3.3-9.1C165.2,259.7,160.2,258.5,152.5,258.5z"/>
	<path d="M225.6,294h-6v27.1c0,3.6-0.8,6.2-2.4,7.9c-1.6,1.7-3.6,2.5-6.2,2.5c-2.7,0-4.8-0.9-6.3-2.7s-2.2-4.4-2.2-7.8v-65
		c0-3.7,0.8-6.4,2.5-8c1.7-1.7,4.3-2.5,8-2.5h27.8c3.8,0,7.1,0.2,9.9,0.5c2.7,0.3,5.2,1,7.4,2c2.7,1.1,5,2.7,7,4.8
		c2,2.1,3.6,4.5,4.6,7.2s1.6,5.7,1.6,8.7c0,6.3-1.8,11.3-5.3,15.1c-3.6,3.8-8.9,6.4-16.2,8c3,1.6,5.9,4,8.7,7.1
		c2.8,3.2,5.2,6.5,7.4,10.1s3.9,6.8,5.1,9.6c1.2,2.9,1.8,4.8,1.8,5.9c0,1.1-0.4,2.2-1.1,3.3c-0.7,1.1-1.7,2-2.9,2.6
		c-1.2,0.6-2.7,1-4.3,1c-1.9,0-3.5-0.5-4.8-1.4c-1.3-0.9-2.4-2-3.4-3.4c-0.9-1.4-2.2-3.4-3.8-6.1l-6.9-11.4
		c-2.5-4.2-4.7-7.4-6.6-9.6c-1.9-2.2-3.9-3.7-5.9-4.5C231.1,294.4,228.6,294,225.6,294z M235.4,258.5h-15.8v23.2h15.3
		c4.1,0,7.6-0.4,10.4-1.1c2.8-0.7,4.9-1.9,6.4-3.6c1.5-1.7,2.2-4.1,2.2-7.1c0-2.3-0.6-4.4-1.8-6.2c-1.2-1.8-2.8-3.1-5-4
		C245.2,258.9,241.2,258.5,235.4,258.5z"/>
	<path d="M324.6,244.2c8.8,0,16.3,1.8,22.6,5.3c6.3,3.6,11,8.6,14.3,15.2s4.8,14.2,4.8,23.1c0,6.5-0.9,12.5-2.7,17.8
		c-1.8,5.3-4.4,10-8,13.9c-3.5,3.9-7.9,6.9-13,9c-5.1,2.1-11,3.1-17.7,3.1c-6.6,0-12.5-1.1-17.7-3.2c-5.2-2.1-9.6-5.1-13.1-9
		c-3.5-3.9-6.1-8.5-7.9-14c-1.8-5.5-2.7-11.4-2.7-17.7c0-6.5,0.9-12.4,2.8-17.9s4.6-10,8.1-13.8c3.5-3.8,7.8-6.7,12.9-8.7
		S318.2,244.2,324.6,244.2z M348.9,287.6c0-6.2-1-11.5-3-16.1c-2-4.5-4.8-8-8.6-10.3s-8-3.5-12.8-3.5c-3.4,0-6.6,0.6-9.5,1.9
		s-5.4,3.2-7.5,5.6c-2.1,2.5-3.7,5.6-5,9.4s-1.8,8.1-1.8,12.9c0,4.8,0.6,9.1,1.8,13c1.2,3.9,2.9,7.1,5.1,9.7s4.7,4.5,7.6,5.7
		s6,1.9,9.4,1.9c4.4,0,8.4-1.1,12.1-3.3s6.6-5.6,8.8-10.1C347.8,299.9,348.9,294.3,348.9,287.6z"/>
	<path d="M400.5,306.4h-18.2c-2.8,0-4.9-0.6-6.3-1.9s-2.2-2.9-2.2-5c0-2.1,0.7-3.8,2.1-5s3.5-1.9,6.4-1.9h18.2c2.8,0,5,0.6,6.4,1.9
		s2.1,3,2.1,5c0,2-0.7,3.7-2.1,5S403.4,306.4,400.5,306.4z"/>
	<path d="M174.4,362.8h-33.7v21.6h28.2c2.6,0,4.6,0.6,5.8,1.8c1.3,1.2,1.9,2.7,1.9,4.7s-0.7,3.5-2,4.7c-1.3,1.2-3.2,1.7-5.8,1.7
		h-28.2v27.8c0,3.5-0.8,6.2-2.4,7.9c-1.6,1.7-3.6,2.6-6.1,2.6c-2.5,0-4.6-0.9-6.2-2.6c-1.6-1.7-2.4-4.3-2.4-7.8v-65
		c0-2.5,0.4-4.5,1.1-6c0.7-1.6,1.9-2.7,3.4-3.4s3.5-1.1,6-1.1h40.3c2.7,0,4.8,0.6,6.1,1.8c1.3,1.2,2,2.8,2,4.8c0,2-0.7,3.6-2,4.8
		C179.1,362.2,177.1,362.8,174.4,362.8z"/>
	<path d="M195.8,425.1v-66.5c0-3.5,0.8-6,2.4-7.8c1.6-1.7,3.6-2.6,6.1-2.6c2.6,0,4.7,0.9,6.3,2.6c1.6,1.7,2.4,4.3,2.4,7.8v66.5
		c0,3.5-0.8,6.1-2.4,7.8c-1.6,1.7-3.7,2.6-6.3,2.6c-2.5,0-4.5-0.9-6.1-2.6C196.6,431.2,195.8,428.6,195.8,425.1z"/>
	<path d="M248.9,358.6V420h34.7c2.8,0,4.9,0.7,6.4,2c1.5,1.3,2.2,3,2.2,5.1c0,2.1-0.7,3.8-2.2,5c-1.5,1.3-3.6,1.9-6.4,1.9h-41.3
		c-3.7,0-6.4-0.8-8-2.5c-1.6-1.7-2.4-4.3-2.4-8v-65c0-3.5,0.8-6,2.3-7.8s3.6-2.6,6.1-2.6c2.6,0,4.7,0.9,6.3,2.6
		C248.1,352.5,248.9,355.1,248.9,358.6z"/>
	<path d="M359,362.8h-38.5v20.7H356c2.6,0,4.6,0.6,5.8,1.8c1.3,1.2,1.9,2.7,1.9,4.6c0,1.9-0.6,3.5-1.9,4.7c-1.3,1.2-3.2,1.8-5.9,1.8
		h-35.5v24h39.9c2.7,0,4.7,0.6,6.1,1.9s2,2.9,2,5c0,2-0.7,3.6-2,4.9c-1.4,1.2-3.4,1.9-6.1,1.9h-46.5c-3.7,0-6.4-0.8-8-2.5
		c-1.6-1.7-2.4-4.3-2.4-8v-63.5c0-2.5,0.4-4.5,1.1-6c0.7-1.6,1.9-2.7,3.4-3.4s3.5-1.1,6-1.1H359c2.7,0,4.8,0.6,6.1,1.8
		c1.3,1.2,2,2.8,2,4.8c0,2-0.7,3.6-2,4.8C363.8,362.2,361.7,362.8,359,362.8z"/>
</g>
</svg>
