<?xml version="1.0" encoding="UTF-8"?>
<svg xmlns="http://www.w3.org/2000/svg" xmlns:xlink="http://www.w3.org/1999/xlink" xmlns:svgjs="http://svgjs.com/svgjs" version="1.1" width="512" height="512" x="0" y="0" viewBox="0 0 512 512" style="enable-background:new 0 0 512 512" xml:space="preserve" class="">
  <g>
    <g xmlns="http://www.w3.org/2000/svg">
      <g>
        <path d="m127.067 325.407h54.412v179.093h-54.412z" fill="#e19974" data-original="#e19974" style=""/>
        <path d="m259.86 382.04c-1.43.68-2.89 1.36-4.38 2.03-11.28 5.11-24.12 9.97-38.42 13.88-24.1 6.57-45.48 8.56-62.41 8.73-16.71.2-38.23-1.37-62.62-7.93-.97-.26-1.94-.53-2.91-.8-15.39-4.35-29-9.88-40.7-15.61-9.58-4.69-15.2-16.64-13.67-28.9 6.49-52.13 18.22-115.58 39.8-185.05 17.69-56.92 38.17-105.58 57.91-145.76 9.83-19.98 33.9-20.22 43.99-.42 3.17 6.22 6.37 12.67 9.57 19.34 17.61 36.71 35.44 80.29 50.8 130.59 8.04 26.31 14.55 51.72 19.84 75.9 8.49 38.75 13.82 74.36 17.2 105.49 1.321 12.23-4.439 23.96-14 28.51z" fill="#2bcbba" data-original="#0ed2b3" style="" class=""/>
        <path d="m330.522 325.407h54.412v179.093h-54.412z" fill="#e19974" data-original="#e19974" style=""/>
        <path d="m463.321 382.04c-12.3 5.84-26.63 11.49-42.81 15.91-.92.25-1.84.5-2.75.73-22.97 5.99-43.37 7.84-59.66 8-17.37.21-39.94-1.5-65.53-8.73-13.82-3.91-26.23-8.77-37.09-13.88-1.22-.57-2.43-1.15-3.61-1.73-9.57-4.69-15.19-16.64-13.67-28.9 3.92-31.41 9.73-66.93 18.46-105.4 5.75-25.38 12.77-52.04 21.35-79.65 14.87-47.88 31.72-89.91 48.45-125.97 3.16-6.81 6.32-13.41 9.46-19.79 9.82-19.98 33.9-20.22 43.99-.42 20.6 40.43 42.21 90.48 60.36 149.93 20.91 68.47 31.56 130.83 37.04 181.39 1.33 12.23-4.431 23.96-13.99 28.51z" fill="#2bcbba" data-original="#0ed2b3" style="" class=""/>
        <path d="m227.777 325.407h54.412v179.093h-54.412z" fill="#e19974" data-original="#e19974" style=""/>
        <g fill="#d77f4a">
          <path d="m227.777 325.407v100c16.796 0 30.413 13.616 30.413 30.413v48.68h24v-179.093z" fill="#d77f4a" data-original="#d77f4a" style="" class=""/>
          <path d="m330.777 325.407v100c16.796 0 30.413 13.616 30.413 30.413v48.68h24v-179.093z" fill="#d77f4a" data-original="#d77f4a" style="" class=""/>
          <path d="m126.777 325.407v100c16.796 0 30.413 13.616 30.413 30.413v48.68h24v-179.093z" fill="#d77f4a" data-original="#d77f4a" style="" class=""/>
        </g>
        <path d="m417.761 398.68c-22.97 5.99-43.37 7.84-59.66 8-17.37.21-39.94-1.5-65.53-8.73-13.82-3.91-26.23-8.77-37.09-13.88-11.28 5.11-24.12 9.97-38.42 13.88-24.1 6.57-45.48 8.56-62.41 8.73-16.71.2-38.23-1.37-62.62-7.93 9.18-69.75 25.21-153.51 53.67-244.83 12.63-40.53 26.29-78 40.32-112.37 17.61 36.71 35.44 80.29 50.8 130.59 8.04 26.31 14.55 51.72 19.84 75.9 5.75-25.38 12.77-52.04 21.35-79.65 14.87-47.88 31.72-89.91 48.45-125.97 14.64 35.43 28.85 74.38 41.77 116.83 27.31 89.74 41.79 171.81 49.53 239.43z" fill="#0fb9b1" data-original="#0ab69f" style="" class=""/>
        <path d="m233.175 22.635c9.824-19.989 33.899-20.225 43.988-.427 20.604 40.429 42.215 90.481 60.366 149.929 20.909 68.476 31.555 130.838 37.037 181.397 1.326 12.23-4.436 23.961-13.996 28.503-12.297 5.843-26.621 11.492-42.805 15.91-24.093 6.577-45.471 8.56-62.409 8.733-17.368.206-39.94-1.503-65.53-8.733-15.385-4.347-29-9.881-40.698-15.609-9.574-4.688-15.198-16.636-13.67-28.903 6.494-52.126 18.224-115.577 39.806-185.042 17.685-56.92 38.164-105.579 57.911-145.758z" fill="#26de81" data-original="#5de1c4" style="" class=""/>
      </g>
      <path d="m484.766 352.723c-12.57-116.241-45.531-230.642-98.173-333.918-12.444-25.191-45.37-24.868-57.403.516-7.748 15.753-15.192 31.994-22.221 48.464-7.263-16.636-14.971-32.986-23.124-48.982-6.042-11.86-16.828-18.9-28.775-18.802-12.021.087-22.722 7.312-28.627 19.326-7.419 15.097-14.486 30.482-21.194 46.101-6.963-15.819-14.371-31.442-22.115-46.624-6.045-11.859-16.792-18.883-28.77-18.803-12.02.085-22.724 7.306-28.635 19.321-18.458 37.57-34.837 77.042-48.683 117.318-1.732 4.748 2.06 10.025 7.093 9.94 3.114 0 6.023-1.954 7.093-5.063 13.642-39.686 29.778-78.572 47.958-115.578 6.857-14.284 23.533-14.679 30.58-.322 9.768 19.149 18.986 39.014 27.439 59.084-34.716 85.682-57.619 175.352-69.192 267.805-1.925 15.452 5.4 30.488 17.814 36.566 7.269 3.559 14.697 6.752 22.217 9.581-25.916 1.792-51.789-.822-76.888-7.922-13.422-3.795-26.692-8.885-39.442-15.13-6.649-3.255-10.655-12.185-9.525-21.236 7.794-62.601 21.09-124.424 39.52-183.753 1.229-3.955-.981-8.158-4.938-9.387-3.956-1.233-8.159.982-9.387 4.938-18.692 60.174-32.177 122.87-40.08 186.347-1.929 15.45 5.397 30.486 17.813 36.563 23.545 11.538 48.658 19.339 74.449 22.883v85.044h-46.103c-4.143 0-7.5 3.357-7.5 7.5s3.357 7.5 7.5 7.5h363.034c9.811-.308 10.051-14.593 0-15h-44.07v-85.525c25.713-3.795 50.462-11.441 74.113-22.662 12.398-5.902 19.892-20.744 18.222-36.09zm-295.785 58.754c4.725-.7 9.471-1.54 14.194-2.51 5.675 1.208 11.379 2.21 17.106 3v85.033h-31.3zm-54.41 85.523v-83.46c13.124.99 26.306.833 39.41-.309v83.769zm100.71 0v-83.45c13.124.976 26.297.827 39.41-.314v83.764zm69.682-88.256c5.97 1.301 12.013 2.39 18.057 3.225v85.031h-33.329v-85.527c5.11-.754 10.204-1.663 15.272-2.729zm33.057 88.256v-83.46c13.122.99 26.313.834 39.41-.308v83.768zm122.084-121.735c-37.374 17.767-78.635 26.22-119.88 23.39 7.973-2.898 15.853-6.178 23.566-9.843 12.4-5.893 19.898-20.732 18.233-36.087-3.938-36.319-9.899-72.687-17.718-108.091-.893-4.044-4.89-6.601-8.94-5.706-4.045.893-6.6 4.896-5.706 8.94 7.7 34.873 13.572 70.696 17.452 106.474.973 8.974-3.132 17.771-9.759 20.921-64.034 30.973-141.024 32.437-204.925.338-6.648-3.253-10.653-12.186-9.525-21.239 14.206-114.129 46.698-226.069 97.004-328.419 6.846-14.271 23.514-14.68 30.574-.33 30.794 60.329 55.414 126.391 72.257 193.059 1.019 4.016 5.103 6.442 9.113 5.428 4.016-1.019 6.445-5.099 5.428-9.113-11.015-43.507-25.165-86.539-42.127-127.867 8.53-20.825 17.769-41.395 27.5-61.182 6.854-14.289 23.524-14.651 30.577-.323 51.82 101.667 84.247 214.279 96.626 328.725.976 8.972-3.127 17.773-9.75 20.925z" fill="#000000" data-original="#000000" style="" class=""/>
    </g>
  </g>
</svg>
