<?xml version="1.0" encoding="UTF-8"?>
<svg xmlns="http://www.w3.org/2000/svg" xmlns:xlink="http://www.w3.org/1999/xlink" xmlns:svgjs="http://svgjs.com/svgjs" version="1.1" width="512" height="512" x="0" y="0" viewBox="0 0 512 512" style="enable-background:new 0 0 512 512" xml:space="preserve" class="">
  <g>
    <g xmlns="http://www.w3.org/2000/svg">
      <g>
        <g>
          <path d="m229.412 327.721h53.526v176.779h-53.526z" fill="#e19974" transform="matrix(1 -.001 .001 1 -.466 .287)" data-original="#e19974" style=""/>
        </g>
        <g>
          <path d="m256.93 408.825.107 95.674 26-.029-.142-127.183-.055-49.596-26 .029-27.526.031.055 49.596 7.528 2.775c12.025 4.434 20.019 15.886 20.033 28.703z" fill="#d77f4a" data-original="#d77f4a" style=""/>
        </g>
        <g>
          <path d="m255.718 7.5c-65.446.073-118.44 53.228-118.367 118.724l.216 193.117c.025 22.262 18.078 40.289 40.323 40.264 18.925-.021 34.778-13.104 39.076-30.715 4.338 17.602 20.221 30.649 39.145 30.628 18.925-.021 34.778-13.104 39.077-30.715 4.338 17.602 20.22 30.649 39.145 30.628 22.245-.025 40.258-18.092 40.233-40.354l-.216-193.117c-.073-65.497-53.187-118.533-118.632-118.46z" fill="#26de81" data-original="#ade194" style="" class=""/>
        </g>
        <g>
          <path d="m353.469 58.856c.207 3.986.315 7.998.319 12.034.138 123.134-95.268 224.052-216.24 232.653l.018 15.797c.025 22.262 18.078 40.289 40.323 40.264 18.925-.021 34.778-13.104 39.076-30.715 4.338 17.602 20.221 30.649 39.145 30.628s34.778-13.104 39.077-30.715c4.338 17.602 20.221 30.649 39.145 30.628 22.245-.025 40.258-18.092 40.233-40.354l-.216-193.117c-.027-24.919-7.738-48.03-20.88-67.103z" fill="#20bf6b" data-original="#80d261" style="" class=""/>
        </g>
      </g>
      <path d="m256 0c-69.477 0-126 56.564-126 126.091v36.042c.38 9.983 14.667 9.881 15 0v-36.041c6.059-147.304 215.897-147.404 222 .001 0-.001 0 193.117 0 193.117 0 18.091-14.704 32.809-32.778 32.809-15.135 0-28.223-10.263-31.827-24.958-.823-3.354-3.83-5.713-7.284-5.713s-6.462 2.359-7.284 5.714c-8.417 33.077-55.225 33.11-63.652 0-1.874-7.577-12.713-7.528-14.568 0-10.032 37.298-63.684 30.825-64.605-7.852v-121.325c0-4.142-3.357-7.5-7.5-7.5s-7.5 3.358-7.5 7.5v121.325c.295 46.689 60.184 65.287 86.89 27.511 1.46 2.084 3.092 4.025 4.851 5.835v144.444h-64.986c-4.143 0-7.5 3.358-7.5 7.5s3.357 7.5 7.5 7.5h198.492c4.143 0 7.5-3.358 7.5-7.5s-3.357-7.5-7.5-7.5h-64.989v-52.07c0-4.142-3.357-7.5-7.5-7.5s-7.5 3.358-7.5 7.5v52.07h-38.52v-134.023c11.723 5.346 26.797 5.346 38.52 0v49.476c0 4.142 3.357 7.5 7.5 7.5s7.5-3.358 7.5-7.5v-59.899c1.759-1.81 3.39-3.751 4.851-5.835 26.691 37.746 86.587 19.219 86.889-27.511v-193.117c0-69.527-56.523-126.091-126-126.091z" fill="#000000" data-original="#000000" style=""/>
    </g>
  </g>
</svg>
