<?xml version="1.0" encoding="UTF-8"?>
<svg xmlns="http://www.w3.org/2000/svg" xmlns:xlink="http://www.w3.org/1999/xlink" xmlns:svgjs="http://svgjs.com/svgjs" version="1.1" width="512" height="512" x="0" y="0" viewBox="0 0 511.914 511.914" style="enable-background:new 0 0 512 512" xml:space="preserve" class="">
  <g>
    <g xmlns="http://www.w3.org/2000/svg">
      <g>
        <g>
          <path d="m228.927 325.861h54.061v178.553h-54.061z" fill="#e19974" data-original="#e19974" style=""/>
        </g>
        <g>
          <path d="m256.988 445.588v58.826h26v-72.781-105.772h-26-14.093c-4.539 3.23-9.197 6.302-13.969 9.206v96.98l15.867.754c6.827.324 12.195 5.953 12.195 12.787z" fill="#d77f4a" data-original="#d77f4a" style="" class=""/>
        </g>
        <g>
          <path d="m234.29 22.503c9.761-19.929 33.68-20.164 43.705-.426 20.471 40.307 41.942 90.208 59.977 149.477 20.774 68.269 31.351 130.444 36.799 180.85 1.318 12.194-4.407 23.888-13.906 28.417-12.218 5.826-26.45 11.457-42.528 15.862-23.938 6.557-45.178 8.534-62.007 8.707-17.256.205-39.683-1.498-65.107-8.707-15.285-4.334-28.813-9.851-40.435-15.561-9.512-4.673-15.1-16.586-13.582-28.816 6.452-51.969 18.106-115.228 39.549-184.484 17.569-56.748 37.915-105.26 57.535-145.319z" fill="#2bcbba" data-original="#5de1c4" style="" class=""/>
        </g>
        <g>
          <path d="m374.77 352.405c-5.447-50.407-16.025-112.581-36.799-180.85-1.046-3.44-2.107-6.84-3.176-10.217-21.847 93.121-99.549 164.715-195.833 177.519-.624 4.56-1.211 9.049-1.758 13.45-1.518 12.23 4.069 24.142 13.582 28.816 11.623 5.71 25.15 11.228 40.435 15.561 25.425 7.208 47.851 8.912 65.107 8.707 16.829-.172 38.069-2.149 62.007-8.707 16.079-4.405 30.311-10.036 42.528-15.862 9.5-4.529 15.225-16.224 13.907-28.417z" fill="#0fb9b1" data-original="#0ed2b3" style="" class=""/>
        </g>
      </g>
      <path d="m382.227 351.599c-8.567-78.86-26.043-155.425-52.724-229.239-1.409-3.895-5.709-5.91-9.605-4.5-3.895 1.41-5.909 5.71-4.5 9.605 5.489 15.166 10.67 30.733 15.398 46.272 17.618 57.896 29.904 118.28 36.518 179.473.966 8.942-3.104 17.708-9.677 20.841-31.716 15.165-66.456 23.511-101.396 23.839-35.23.46-70.359-7.833-102.146-23.501-6.594-3.239-10.566-12.138-9.446-21.16 7.75-62.425 20.963-124.059 39.271-183.19 15.437-49.86 34.65-98.389 57.106-144.239 6.786-14.203 23.284-14.6 30.282-.328 12.01 23.648 23.165 48.3 33.154 73.272 4.006 9.112 17.304 3.742 13.927-5.571-10.154-25.385-21.495-50.448-33.707-74.493-12.347-25.16-45.149-24.83-57.127.523-50.729 103.574-83.471 216.757-97.792 332.178-1.913 15.409 5.373 30.407 17.717 36.471 23.443 11.513 48.27 19.267 73.948 22.825v25.766c0 4.142 3.358 7.5 7.5 7.5s7.5-3.358 7.5-7.5v-24.178c13.007.968 26.063.819 39.06-.312v84.961h-39.06v-30.097c0-4.142-3.358-7.5-7.5-7.5s-7.5 3.358-7.5 7.5v30.097h-65.709c-4.142 0-7.5 3.358-7.5 7.5s3.358 7.5 7.5 7.5h200.478c4.142 0 7.5-3.358 7.5-7.5s-3.358-7.5-7.5-7.5h-65.709v-86.728c25.513-3.774 50.151-11.422 73.605-22.594 12.331-5.88 19.788-20.681 18.134-35.993z" fill="#000000" data-original="#000000" style=""/>
    </g>
  </g>
</svg>
