<?xml version="1.0" encoding="UTF-8"?>
<svg xmlns="http://www.w3.org/2000/svg" xmlns:xlink="http://www.w3.org/1999/xlink" xmlns:svgjs="http://svgjs.com/svgjs" version="1.1" width="512" height="512" x="0" y="0" viewBox="0 0 511.888 511.888" style="enable-background:new 0 0 512 512" xml:space="preserve" class="">
  <g>
    <g xmlns="http://www.w3.org/2000/svg">
      <g>
        <path d="m229.194 307.616h53.58v196.772h-53.58z" fill="#e19974" data-original="#e19974" style=""/>
        <path d="m258.774 307.616v42.938c-5.384-3.577-11.842-5.666-18.79-5.666-3.773 0-7.399.624-10.79 1.758v64.483c3.391 1.135 7.017 1.758 10.79 1.758.762 0 1.518-.025 2.268-.075 8.948-.59 16.522 6.519 16.522 15.487v76.088h24v-196.771z" fill="#d77f4a" data-original="#d77f4a" style=""/>
        <path d="m434.077 198.948c-1.464-1.5-1.47-3.869-.017-5.379 7.441-7.734 11.212-18.769 9.202-30.126-2.027-11.447-9.46-20.587-19.221-25.287-1.887-.909-2.702-3.131-1.855-5.047 4.336-9.802 4.09-21.455-1.699-31.442-5.838-10.07-15.966-16.127-26.758-17.216-2.08-.21-3.603-2.017-3.465-4.103.711-10.69-3.522-21.56-12.394-28.974-8.946-7.476-20.549-9.717-31.065-7.061-2.023.511-4.068-.663-4.652-2.666-3.001-10.292-10.713-19.069-21.6-23.016-10.975-3.978-22.649-2.132-31.619 3.948-1.725 1.169-4.045.766-5.279-.914-6.354-8.654-16.618-14.279-28.208-14.279-11.678 0-22.011 5.71-28.353 14.476-1.221 1.688-3.54 2.104-5.273.947-8.943-5.97-20.522-7.76-31.414-3.812-10.97 3.976-18.718 12.857-21.669 23.251-.57 2.007-2.609 3.192-4.636 2.695-10.453-2.563-21.948-.301-30.826 7.119-8.939 7.471-13.171 18.45-12.379 29.218.153 2.085-1.36 3.9-3.439 4.124-10.699 1.155-20.719 7.195-26.513 17.189-5.834 10.063-6.04 21.819-1.601 31.667.861 1.909.057 4.136-1.823 5.058-9.652 4.731-16.989 13.818-19 25.178-2.026 11.444 1.817 22.561 9.372 30.303 1.464 1.5 1.47 3.869.017 5.379-7.441 7.734-11.212 18.768-9.202 30.126 2.027 11.447 9.46 20.587 19.221 25.287 1.887.909 2.702 3.131 1.855 5.046-4.336 9.802-4.09 21.455 1.699 31.442 5.838 10.07 15.966 16.127 26.758 17.216 2.08.21 3.603 2.017 3.465 4.103-.711 10.69 3.522 21.56 12.394 28.974 8.946 7.476 20.549 9.717 31.065 7.061 2.023-.511 4.068.663 4.652 2.666 3.001 10.292 10.713 19.069 21.6 23.016 10.975 3.978 22.649 2.132 31.619-3.948 1.725-1.169 4.045-.766 5.279.914 6.354 8.654 16.618 14.279 28.208 14.279 11.678 0 22.011-5.71 28.353-14.476 1.221-1.688 3.54-2.104 5.273-.947 8.943 5.97 20.522 7.76 31.414 3.812 10.97-3.976 18.718-12.857 21.669-23.251.57-2.007 2.609-3.192 4.636-2.695 10.453 2.563 21.948.301 30.826-7.119 8.939-7.471 13.171-18.45 12.379-29.218-.153-2.085 1.361-3.9 3.439-4.124 10.699-1.155 20.719-7.195 26.513-17.189 5.834-10.063 6.04-21.819 1.601-31.667-.861-1.909-.057-4.136 1.823-5.058 9.652-4.731 16.989-13.818 19-25.178 2.025-11.443-1.818-22.56-9.372-30.302z" fill="#2bcbba" data-original="#5de1c4" style="" class=""/>
        <path d="m434.077 198.948c-1.464-1.5-1.47-3.869-.017-5.379 7.441-7.734 11.212-18.769 9.202-30.126-2.027-11.447-9.46-20.587-19.221-25.287-1.887-.909-2.702-3.131-1.855-5.047 4.336-9.802 4.09-21.455-1.699-31.442-5.838-10.07-15.966-16.127-26.758-17.216-2.08-.21-3.603-2.017-3.465-4.103.711-10.69-3.522-21.56-12.394-28.974-4.495-3.756-9.661-6.189-15.023-7.345 7.854 22.502 12.137 46.678 12.137 71.858 0 120.398-97.602 218-218 218-10.699 0-21.213-.785-31.499-2.274 2.062 4.007 4.932 7.683 8.613 10.76 8.946 7.476 20.549 9.717 31.065 7.061 2.023-.511 4.068.663 4.652 2.666 3.001 10.292 10.713 19.069 21.6 23.016 10.975 3.978 22.649 2.132 31.619-3.948 1.725-1.169 4.046-.766 5.279.914 6.354 8.654 16.618 14.279 28.208 14.279 11.678 0 22.011-5.71 28.353-14.476 1.222-1.688 3.54-2.104 5.273-.947 8.943 5.97 20.522 7.76 31.414 3.812 10.97-3.976 18.718-12.857 21.669-23.251.57-2.007 2.609-3.192 4.636-2.695 10.453 2.563 21.948.301 30.826-7.119 8.939-7.471 13.171-18.45 12.379-29.218-.153-2.085 1.36-3.9 3.439-4.124 10.699-1.155 20.719-7.195 26.513-17.189 5.834-10.063 6.04-21.819 1.601-31.667-.861-1.909-.057-4.136 1.823-5.058 9.652-4.731 16.989-13.818 19-25.178 2.027-11.444-1.816-22.561-9.37-30.303z" fill="#0fb9b1" data-original="#0ed2b3" style="" class=""/>
      </g>
      <path d="m441.714 196.231c16.466-19.485 10.791-50.742-11.426-63.241 8.79-23.95-7.311-51.373-32.454-55.527.042-25.514-24.51-45.784-49.559-41.117-8.703-23.977-38.725-34.69-60.682-21.755-16.375-19.546-48.267-19.436-64.49.223-22.06-12.775-52.009-1.856-60.528 22.175-25.094-4.482-49.504 15.958-49.271 41.46-17.342 3.057-31.834 17.95-34.121 35.563-1.02 9.945 13.109 11.851 14.849 2.12 1.736-13.209 13.832-23.607 27.2-23.429 2.299.055 4.479-.942 5.942-2.701 1.433-1.722 2.022-3.995 1.604-6.196-1.838-9.697 1.728-19.655 9.305-25.988 7.532-6.292 17.954-8.086 27.2-4.682 2.1.772 4.434.568 6.367-.557 1.933-1.126 3.262-3.056 3.625-5.263 1.604-9.745 8.38-17.893 17.685-21.266 9.241-3.352 19.651-1.488 27.168 4.86 3.418 3.046 9.226 1.973 11.373-2.048 10.19-18.412 37.447-18.554 47.792-.164 2.168 4.032 7.996 5.009 11.386 1.967 15.859-13.809 41.545-4.745 44.967 16.098.379 2.204 1.722 4.125 3.662 5.237s4.276 1.301 6.37.513c19.619-7.569 40.657 9.645 36.717 30.418-.937 4.459 2.848 8.948 7.379 8.845 21.063-.515 34.985 22.871 24.13 41.07-1.135 1.935-1.344 4.277-.57 6.382.774 2.106 2.451 3.754 4.569 4.494 9.367 3.268 16.252 11.326 17.97 21.029 1.703 9.618-1.94 19.48-9.508 25.74-1.729 1.431-2.728 3.561-2.72 5.806s1.021 4.368 2.761 5.786c7.671 6.255 11.371 16.165 9.654 25.861-1.704 9.624-8.521 17.657-17.791 20.964-4.373 1.428-6.354 7.027-3.922 10.904 10.924 18.045-2.65 41.515-23.754 41.234-4.582-.125-8.365 4.418-7.406 8.897 4.069 20.688-16.773 38.122-36.505 30.67-2.099-.773-4.434-.569-6.367.557s-3.262 3.056-3.625 5.263c-3.272 20.81-28.85 30.143-44.854 16.406-3.422-3.046-9.225-1.971-11.372 2.048-10.196 18.412-37.442 18.555-47.792.164-1.111-1.938-3.028-3.281-5.23-3.662-2.203-.379-4.459.241-6.156 1.694-15.868 13.808-41.539 4.747-44.967-16.098-.656-4.537-5.801-7.455-10.032-5.75-19.629 7.566-40.652-9.643-36.717-30.419.402-2.204-.203-4.472-1.648-6.184-1.446-1.711-3.583-2.72-5.821-2.661-21.056.447-34.861-22.916-24.04-41.07 2.431-3.905.357-9.466-3.999-10.876-9.367-3.268-16.252-11.326-17.97-21.029-1.703-9.617 1.94-19.48 9.508-25.739 3.622-2.838 3.575-8.78-.041-11.592-7.671-6.255-11.371-16.165-9.654-25.861.639-3.61 1.964-6.986 3.939-10.034 2.252-3.477 1.26-8.12-2.216-10.373-3.477-2.252-8.12-1.26-10.373 2.216-3.071 4.74-5.13 9.98-6.121 15.575-2.183 12.328 1.267 24.869 9.119 34.328-16.466 19.485-10.791 50.742 11.426 63.24-8.789 23.95 7.311 51.373 32.454 55.527-.042 25.514 24.508 45.783 49.559 41.117 8.292 22.845 36.268 33.962 58.001 23.137v116.348h-65.056c-4.142 0-7.5 3.358-7.5 7.5s3.358 7.5 7.5 7.5h198.692c4.142 0 7.5-3.358 7.5-7.5s-3.358-7.5-7.5-7.5h-65.056v-41.495c0-4.142-3.358-7.5-7.5-7.5s-7.5 3.358-7.5 7.5v41.495h-38.58v-107.949c11.59 6.316 26.812 6.535 38.58.541v30.343c.341 9.925 14.657 9.929 15 0v-40.149c21.956 11.659 50.813.52 59.119-22.912 25.092 4.487 49.504-15.96 49.271-41.459 25.122-4.345 41.031-31.876 32.066-55.751 22.134-12.669 27.589-43.966 10.985-63.318z" fill="#000000" data-original="#000000" style="" class=""/>
    </g>
  </g>
</svg>
