<?xml version="1.0" encoding="UTF-8"?>
<svg xmlns="http://www.w3.org/2000/svg" xmlns:xlink="http://www.w3.org/1999/xlink" xmlns:svgjs="http://svgjs.com/svgjs" version="1.1" width="512" height="512" x="0" y="0" viewBox="0 0 512.233 512.233" style="enable-background:new 0 0 512 512" xml:space="preserve" class="">
  <g>
    <g xmlns="http://www.w3.org/2000/svg">
      <g>
        <path d="m230.715 363.924h50.804v140.809h-50.804z" fill="#e19974" data-original="#e19974" style=""/>
        <path d="m276.109 363.924h-18.59-26.804v45.299c.003.003.005.005.008.008 1.704.015 3.386-.066 5.041-.236 11.596-1.193 21.754 7.665 21.754 19.322v76.415h24v-140.809h-5.409z" fill="#d77f4a" data-original="#d77f4a" style="" class=""/>
        <path d="m347.369 146.258c5.026-12.002 7.778-25.19 7.714-39.03-.25-54.223-44.374-98.745-98.621-99.485-55.88-.763-101.418 44.282-101.418 99.957 0 14.064 2.909 27.447 8.155 39.586 2.893 6.694 1.753 14.474-3.141 19.881-20.433 22.573-33.013 52.379-33.43 85.117-.906 71.072 56.537 130.111 127.646 131.099 72.365 1.006 131.343-57.322 131.343-129.417 0-34.068-13.174-65.057-34.704-88.167-4.892-5.251-6.316-12.923-3.544-19.541z" fill="#26de81" data-original="#7acaa6" style="" class=""/>
        <path d="m350.912 165.799c-4.892-5.251-6.315-12.922-3.543-19.541 5.026-12.002 7.778-25.19 7.714-39.03-.216-46.875-33.224-86.494-77.213-96.851 27.065 33.99 43.246 77.031 43.246 123.856 0 99.663-73.265 182.212-168.873 196.732 23.287 31.261 60.302 51.837 102.03 52.417 72.365 1.006 131.343-57.322 131.343-129.417.001-34.067-13.174-65.056-34.704-88.166z" fill="#20bf6b" data-original="#57be92" style="" class=""/>
      </g>
      <path d="m350.242 497.233h-61.237v-110.287c100.73-24.485 138.512-150.51 67.382-226.26-2.908-3.123-3.738-7.649-2.112-11.531 11.778-27.828 11.003-60.685-2.323-87.88-4.594-8.753-17.519-2.61-13.506 6.526 11.456 23.374 12.114 51.649 1.993 75.56-3.898 9.309-1.946 20.123 4.974 27.55 21.082 22.629 32.692 52.125 32.692 83.055 1.514 66.175-57.84 124.361-123.739 121.917-64.984.535-122.534-58.423-120.25-123.504.378-29.688 11.562-58.164 31.49-80.18 6.792-7.503 8.545-18.45 4.466-27.889-15.106-34.198-7.007-76.436 19.991-102.423 34.675-35.599 96.279-35.283 130.621.823 2.917 2.941 7.665 2.962 10.607.046s2.963-7.665.047-10.606c-85.598-82.816-219.661 7.975-175.034 118.111 1.753 4.056 1.039 8.716-1.818 11.872-69.486 76.111-30.946 200.271 68.72 224.768v42.298c0 4.142 3.358 7.5 7.5 7.5s7.5-3.358 7.5-7.5v-39.473c11.769 1.558 24.046 1.549 35.8.012v107.494h-35.8v-37.568c0-4.142-3.358-7.5-7.5-7.5s-7.5 3.358-7.5 7.5v37.568h-61.237c-9.878.32-9.971 14.644 0 15h188.273c9.863-.312 9.984-14.638 0-14.999z" fill="#000000" data-original="#000000" style=""/>
    </g>
  </g>
</svg>
