<?xml version="1.0" encoding="UTF-8"?>
<svg xmlns="http://www.w3.org/2000/svg" xmlns:xlink="http://www.w3.org/1999/xlink" xmlns:svgjs="http://svgjs.com/svgjs" version="1.1" width="512" height="512" x="0" y="0" viewBox="0 0 512 512" style="enable-background:new 0 0 512 512" xml:space="preserve" class="">
  <g>
    <g xmlns="http://www.w3.org/2000/svg">
      <g>
        <path d="m229.163 359.968h53.673v144.775h-53.673z" fill="#e19974" data-original="#e19974" style="" class=""/>
        <path d="m257.192 427.224v77.519h25.645v-94.483-50.292h-25.645-7.354c-6.679 3.685-13.577 7.02-20.675 9.974v42.288l13.826.387c7.908.222 14.203 6.696 14.203 14.607z" fill="#d77f4a" data-original="#d77f4a" style="" class=""/>
        <path d="m386.195 259.382c0 71.785-58.29 129.977-130.195 129.977s-130.195-58.193-130.195-129.977 58.29-252.125 130.195-252.125 130.195 180.34 130.195 252.125z" fill="#26de81" data-original="#cb97e7" style="" class=""/>
        <path d="m357.326 129.302c.819 7.537 1.252 15.19 1.252 22.945 0 107.222-80.326 195.676-184.083 208.486 22.311 17.905 50.651 28.626 81.505 28.626 71.905 0 130.195-58.193 130.195-129.978 0-30.916-10.813-81.969-28.869-130.079z" fill="#20bf6b" data-original="#bd80e1" style="" class=""/>
      </g>
      <path d="m355.37 497h-65.07v-104.597c59.276-15.26 103.2-69.115 103.2-133.025 0-41.44-19.096-120.736-51.051-181.704-1.924-3.668-6.457-5.084-10.125-3.161s-5.084 6.456-3.161 10.125c30.474 58.141 49.336 135.972 49.336 174.74 0 67.464-54.953 122.351-122.5 122.351s-122.5-54.886-122.5-122.351c0-37.003 15.751-100.019 37.452-149.837 39.6-86.415 85.01-132.971 140.825-53.828 2.373 3.397 7.05 4.226 10.445 1.853s4.225-7.048 1.852-10.444c-21.846-31.268-44.75-47.122-68.073-47.122-47.024 1.652-77.816 57.154-98.801 103.55-22.785 52.309-38.699 116.388-38.699 155.828 0 63.91 43.924 117.765 103.2 133.025v38.588c0 4.142 3.358 7.5 7.5 7.5s7.5-3.358 7.5-7.5v-35.622c12.563 1.805 26.036 1.805 38.6 0v101.631h-38.6v-32.82c0-4.142-3.358-7.5-7.5-7.5s-7.5 3.358-7.5 7.5v32.82h-65.07c-9.874.319-9.974 14.643 0 15h198.739c9.859-.312 9.989-14.638.001-15z" fill="#000000" data-original="#000000" style=""/>
    </g>
  </g>
</svg>
