<svg id="Capa_1" enable-background="new 0 0 512.002 512.002" height="512" viewBox="0 0 512.002 512.002" width="512" xmlns="http://www.w3.org/2000/svg"><g><g><g><path d="m282.951 504.392-19-.03-34.74-.06 26.79-405.58 8.28 124.66 6.21 93.49 1.9 28.53z" fill="#e19974"/></g><g><g><path d="m270.491 316.872-10.21 17.21c-2.07 3.5-7.42 2.22-7.69-1.84l-2.08-31.46-1.729-26.33c-.65-9.81 1.15-19.63 5.229-28.57l9.99-21.88.28-.62z" fill="#d77f4a"/></g><g><path d="m282.951 504.392-19-.03-8.41-127.43c-.27-4.08.9-8.13 3.29-11.44l13.56-20.09z" fill="#d77f4a"/></g></g><g><g><path d="m355.504 512.002c-.004 0-.008 0-.012 0l-199.006-.307c-4.142-.007-7.495-3.369-7.488-7.512.007-4.138 3.363-7.488 7.5-7.488h.012l199.006.307c4.142.007 7.495 3.369 7.488 7.512-.007 4.137-3.363 7.488-7.5 7.488z" fill="#d9e7ec"/></g></g></g><g><path d="m355.516 497.002-65.544-.101-2.422-36.736c-.271-4.134-3.862-7.272-7.977-6.99-4.134.272-7.263 3.844-6.99 7.977l2.355 35.726-1.172-.002-36.542-.061 10.998-166.728c.272-4.133-2.856-7.704-6.99-7.977-4.132-.291-7.705 2.856-7.977 6.99l-2.169 32.877-31.669-64.255c-1.831-3.716-6.33-5.243-10.043-3.412-3.716 1.831-5.243 6.328-3.412 10.043l43.15 87.549-6.919 104.893c-.012 0-65.683-.101-65.694-.101-4.137 0-7.493 3.351-7.5 7.488-.007 4.143 3.347 7.505 7.488 7.512 0 0 191.982.297 199.018.307 9.858-.314 9.983-14.626.011-14.999z"/><path d="m237.063 271.351-1.91 28.937c-.273 4.133 2.856 7.705 6.989 7.978 4.104.286 7.705-2.855 7.978-6.989.009-.004 2.049-31.141 2.056-31.147l3.903-59.118 14.683 222.535c.259 4.142 3.893 7.276 7.977 6.99 4.134-.272 7.263-3.844 6.99-7.977l-4.747-71.933 53.813-90.731c2.112-3.563.938-8.164-2.625-10.277-3.563-2.11-8.164-.938-10.277 2.625l-42.657 71.922c-1.359-20.572-4.6-69.726-5.988-90.788l43.023-112.387c1.481-3.868-.454-8.205-4.322-9.686-3.874-1.48-8.205.456-9.686 4.323l-31.375 81.959-7.168-108.737 26.247-89.232c1.169-3.974-1.105-8.143-5.079-9.312-3.976-1.168-8.143 1.105-9.312 5.079l-21.896 74.437-18.67-28.722c-5.695-8.135-17.701-.336-12.576 8.176 0 0 25.987 39.977 25.987 39.977l-9.383 142.171-39.619-80.398c-1.831-3.716-6.326-5.244-10.043-3.412-3.715 1.831-5.243 6.327-3.412 10.043z"/></g></g></svg>