<?xml version="1.0" encoding="UTF-8"?>
<svg xmlns="http://www.w3.org/2000/svg" xmlns:xlink="http://www.w3.org/1999/xlink" xmlns:svgjs="http://svgjs.com/svgjs" version="1.1" width="512" height="512" x="0" y="0" viewBox="0 0 512 512" style="enable-background:new 0 0 512 512" xml:space="preserve" class="">
  <g>
    <g xmlns="http://www.w3.org/2000/svg">
      <g>
        <g>
          <path d="m256.319 254.597v-.034c-.106 0-.213.011-.319.017-.106-.006-.213-.017-.319-.017v.034c-27.226 2.86-39.862 209.837-39.862 249.903h39.862.638 39.862c0-40.066-12.636-247.043-39.862-249.903z" fill="#e19974" data-original="#e19974" style=""/>
          <path d="m290.984 411.344c-1.803-21.297-4.084-43.695-6.856-64.685-7.658 2.473-16.672 4.394-26.856 4.819-11.101.459-21.065-.96-29.614-3.187-2.765 21.205-5.033 43.77-6.818 65.137 9.889 3.306 22.236 5.796 36.431 5.21 13.401-.562 24.799-3.707 33.713-7.294z" fill="#d77f4a" data-original="#d77f4a" style="" class=""/>
        </g>
        <g>
          <ellipse cx="255.57" cy="108.623" fill="#20bf6b" rx="51.555" ry="101.123" data-original="#09a76d" style="" class=""/>
          <path d="m256 288.578c-66.887 0-121.11-54.223-121.11-121.11v-89.837c66.887 0 121.11 54.223 121.11 121.11z" fill="#26de81" data-original="#22b27f" style="" class=""/>
          <path d="m256 288.578c66.887 0 121.11-54.223 121.11-121.11v-89.837c-66.887 0-121.11 54.223-121.11 121.11z" fill="#26de81" data-original="#22b27f" style="" class=""/>
          <g fill="#7acaa6">
            <path d="m255.895 287.816c55.268 37.758 130.614 23.46 168.281-31.934l50.323-74.005c-55.268-37.758-130.614-23.46-168.281 31.934z" fill="#20bf6b" data-original="#7acaa6" style="" class=""/>
            <path d="m256.104 287.816c-55.268 37.758-130.614 23.46-168.281-31.934l-50.323-74.005c55.267-37.758 130.614-23.46 168.281 31.934z" fill="#20bf6b" data-original="#7acaa6" style="" class=""/>
          </g>
        </g>
      </g>
      <path d="m478.731 175.687c-21.455-14.659-46.466-22.408-72.331-22.408-7.303 0-14.598.638-21.79 1.872v-77.521c0-4.142-3.358-7.5-7.5-7.5-22.793 0-44.752 5.919-64.213 17.175-1.494-9.239-3.941-18.286-7.359-27.008-1.512-3.857-5.863-5.759-9.72-4.246-3.856 1.512-5.757 5.863-4.246 9.72 3.871 9.877 6.362 20.221 7.438 30.803-4.521 3.461-8.835 7.215-12.844 11.224-13.645 13.651-23.845 29.827-30.166 47.47-6.321-17.644-16.521-33.82-30.167-47.471-4.266-4.266-8.849-8.22-13.639-11.827 3.327-31.112 18.899-59.472 43.376-79.043 8.45 6.76 15.911 14.635 22.227 23.467 2.409 3.37 7.094 4.148 10.463 1.738 3.37-2.409 4.148-7.094 1.738-10.463-8.333-11.654-18.434-21.828-30.021-30.239-2.628-1.907-6.185-1.907-8.812 0-28.387 20.606-47.214 51.261-52.859 85.418-19.267-10.957-40.954-16.718-63.416-16.718-4.142 0-7.5 3.358-7.5 7.5v77.522c-7.193-1.235-14.488-1.872-21.79-1.872-25.865 0-50.876 7.749-72.331 22.408-3.415 2.333-4.296 6.99-1.971 10.41l50.32 74c24.563 36.123 64.935 56.324 106.46 56.323 12.611-.001 25.329-1.87 37.742-5.716-3.196 17.576-6.199 39.913-8.354 59.542-.456 4.117 2.513 7.824 6.629 8.279.281.031.559.047.834.047 3.772 0 7.021-2.839 7.445-6.676.549-4.962 1.119-9.815 1.699-14.54 14.471 2.615 29.396 2.213 43.711-1.171.421 3.401.831 6.832 1.224 10.271 1.423 12.371 2.768 25.743 4.005 39.819-8.45 2.849-17.187 4.497-26.052 4.869-9.473.39-18.907-.687-28.132-3.163.16-1.839.322-3.683.489-5.534.372-4.125-2.671-7.771-6.797-8.143-4.127-.369-7.771 2.671-8.143 6.797-3.079 33.293-5.621 76.855-5.963 95.897h-45.733c-4.142 0-7.5 3.357-7.5 7.5s3.358 7.5 7.5 7.5h186.632c4.142 0 7.5-3.357 7.5-7.5s-3.358-7.5-7.5-7.5h-45.736c-1.255-47.571-7.725-133.305-17.394-186.293 12.41 3.847 25.123 5.715 37.736 5.714 41.519-.003 81.901-20.204 106.461-56.323l50.32-74c2.326-3.42 1.445-8.077-1.97-10.41zm-181.958-57.284c19.336-19.41 45.545-31.359 72.836-33.031v73.273c-28.325 8.432-52.877 26.359-69.592 50.948l-36.517 53.708v-64.561c0-30.34 11.817-58.871 33.273-80.337zm-96.732-12.748c30.224 21.048 48.663 56.232 48.459 93.085v64.561l-36.518-53.707c-16.716-24.591-41.269-42.519-69.592-50.949v-73.273c20.759 1.348 40.553 8.29 57.651 20.283zm-106.019 146.007-45.976-67.611c17.467-10.341 37.213-15.771 57.554-15.771 9.255 0 18.5 1.133 27.481 3.369 27.133 6.742 50.749 23.212 66.496 46.378l45.978 67.62c-4.126 2.44-8.411 4.626-12.799 6.527-49.799 21.515-108.144 4.475-138.734-40.512zm162.94 92.322c-7.013.291-14.035-.222-20.953-1.514 2.002-14.52 4.114-27.31 6.298-38.161 4.707-2.212 9.287-4.712 13.693-7.471 4.412 2.762 8.992 5.262 13.694 7.468 2.144 10.636 4.201 23.014 6.134 36.933-6.195 1.558-12.516 2.48-18.866 2.745zm-33.54 153.016c.38-16.105 1.806-43.867 4.155-73.846 8.399 2.035 16.943 3.07 25.539 3.07 1.488 0 2.979-.031 4.469-.093 9.067-.38 18.013-1.902 26.711-4.515 2.427 30.609 3.896 58.966 4.281 75.384zm194.556-245.338c-30.522 44.888-88.685 61.948-138.41 40.651-.107-.052-.215-.102-.325-.149-4.385-1.894-8.668-4.075-12.798-6.518l45.978-67.62c15.747-23.165 39.362-39.636 66.499-46.378 8.978-2.235 18.223-3.368 27.478-3.368 20.341 0 40.087 5.431 57.554 15.771z" fill="#000000" data-original="#000000" style=""/>
    </g>
  </g>
</svg>
