<?xml version="1.0" encoding="UTF-8"?>
<svg xmlns="http://www.w3.org/2000/svg" xmlns:xlink="http://www.w3.org/1999/xlink" xmlns:svgjs="http://svgjs.com/svgjs" version="1.1" width="512" height="512" x="0" y="0" viewBox="0 0 511.715 511.715" style="enable-background:new 0 0 512 512" xml:space="preserve" class="">
  <g>
    <g xmlns="http://www.w3.org/2000/svg">
      <g>
        <g>
          <path d="m272.983 504.215h-34.134c-4.882 0-8.84-3.958-8.84-8.84v-135.664h51.815v135.664c0 4.882-3.958 8.84-8.841 8.84z" fill="#e19974" data-original="#e19974" style=""/>
        </g>
        <g>
          <path d="m181.021 359.41c-41.154-.089-74.444-33.489-74.356-74.602.002-1.109.033-2.211.088-3.306.101-2.018-1.031-3.887-2.829-4.809-24.131-12.362-40.629-37.471-40.567-66.421.061-28.505 16.156-53.226 39.735-65.682 1.791-.946 2.845-2.847 2.743-4.871-.063-1.258-.095-2.524-.092-3.798.088-41.113 33.522-74.369 74.676-74.281h.039c2.276.006 4.282-1.429 5.004-3.588 9.899-29.599 37.882-50.91 70.832-50.839s60.842 21.504 70.613 51.145c.713 2.162 2.712 3.606 4.988 3.609h.039c41.154.089 74.444 33.489 74.356 74.602-.003 1.274-.04 2.54-.109 3.798-.11 2.023.935 3.928 2.722 4.883 23.526 12.558 39.514 37.348 39.452 65.853-.062 28.95-16.668 53.987-40.852 66.245-1.802.913-2.942 2.778-2.85 4.796.05 1.096.076 2.198.074 3.306-.088 41.113-33.522 74.369-74.676 74.281z" fill="#26de81" data-original="#ade194" style="" class=""/>
        </g>
        <g>
          <path d="m277.23 359.711h-19.222-28v20.93c.003.003.005 11.005.009 11.009 6.684.056 13.044-1.288 18.812-3.752 4.35-1.858 9.18 1.325 9.18 6.055v101.423c0 4.882 3.958 8.84 8.84 8.84h6.134c4.882 0 8.84-3.958 8.84-8.84v-135.665z" fill="#d77f4a" data-original="#d77f4a" style="" class=""/>
        </g>
        <g>
          <path d="m408.905 145.252c-1.787-.954-2.832-2.859-2.722-4.883.069-1.258.106-2.523.109-3.797.068-31.493-19.46-58.44-47.096-69.376.134 3.303.22 6.619.22 9.955 0 133.377-108.123 241.5-241.5 241.5-1.07 0-2.134-.027-3.201-.04 12.274 24.152 37.332 40.738 66.306 40.8l149.032.322c41.154.089 74.588-33.168 74.676-74.281.002-1.109-.024-2.211-.074-3.306-.092-2.018 1.047-3.883 2.85-4.796 24.184-12.258 40.79-37.295 40.852-66.245.062-28.506-15.926-53.296-39.452-65.853z" fill="#20bf6b" data-original="#80d261" style="" class=""/>
        </g>
      </g>
      <path d="m455.858 211.12c.064-29.886-16.035-57.25-42.12-71.776 1.722-45.567-34.74-83.975-80.225-84.856-25.655-72.494-128.663-72.696-154.636-.335-44.472-.213-82.947 40.061-80.59 84.51-15.621 8.621-28.158 22.255-35.399 38.538-1.683 3.785.021 8.217 3.806 9.9 3.784 1.684 8.217-.02 9.9-3.806 6.081-13.674 16.736-25.065 30.003-32.073 4.336-2.291 6.978-6.953 6.73-11.88-.94-18.968 6.152-37.315 19.645-50.693 12.699-12.635 29.585-19.566 47.502-19.507 5.498 0 10.358-3.496 12.103-8.709 20.53-60.746 106.915-60.615 127.209.276 1.725 5.231 6.587 8.752 12.134 8.76 38.143-.031 68.912 32.453 66.774 70.493-.268 4.924 2.355 9.598 6.679 11.905 47.544 24.886 46.943 94.919-1.26 118.792-4.447 2.254-7.175 6.898-6.95 11.83 2.274 37.17-29.864 70.542-67.094 69.743.001.001-149.031-.321-149.031-.321-37.976.015-68.66-32.139-66.793-70.033.247-4.93-2.461-9.585-6.9-11.859-22.56-11.557-36.541-34.444-36.487-59.729.009-4.148-3.353-7.517-7.5-7.516-4.134 0-7.491 3.347-7.5 7.484-.065 30.463 16.504 58.08 43.343 72.429-1.354 45.895 35.85 84.195 81.805 84.225 0 0 41.503.09 41.503.09v44.841c0 4.142 3.358 7.5 7.5 7.5s7.5-3.358 7.5-7.5v-44.63h36.815v128.164c0 .739-.601 1.34-1.34 1.34h-34.134c-.739 0-1.34-.601-1.34-1.34v-52.5c0-4.142-3.358-7.5-7.5-7.5s-7.5 3.358-7.5 7.5v52.5c0 .452.032.897.068 1.34h-62.734c-4.142 0-7.5 3.358-7.5 7.5s3.358 7.5 7.5 7.5h192.146c4.142 0 7.5-3.358 7.5-7.5s-3.358-7.5-7.5-7.5h-62.733c.203-2.407-.004-127.397.068-129.571.183 0 40.728.089 40.895.088 44.769.957 84.002-39.126 81.985-83.871 26.899-14.235 43.587-41.78 43.653-72.243z" fill="#000000" data-original="#000000" style="" class=""/>
    </g>
  </g>
</svg>
