<?xml version="1.0" encoding="UTF-8"?>
<svg xmlns="http://www.w3.org/2000/svg" xmlns:xlink="http://www.w3.org/1999/xlink" xmlns:svgjs="http://svgjs.com/svgjs" version="1.1" width="512" height="512" x="0" y="0" viewBox="0 0 512 512" style="enable-background:new 0 0 512 512" xml:space="preserve" class="">
  <g>
    <g xmlns="http://www.w3.org/2000/svg">
      <g>
        <path d="m356.698 258.076h-26.015c-4.404 0-7.973 3.57-7.973 7.973v44.561c0 8.609-6.979 15.588-15.588 15.588h-28.233c-4.111 0-7.444-3.333-7.444-7.444v-193.417h-41.969v152.739c0 4.111-3.333 7.444-7.444 7.444h-28.932c-8.601 0-15.573-6.972-15.573-15.573v-32.793c0-4.408-3.573-7.981-7.981-7.981h-26.016c-4.404 0-7.973 3.57-7.973 7.973v42.221c0 26.502 21.446 47.996 47.923 48.03l38.569.1c4.104.011 7.425 3.34 7.425 7.444v169.559h41.969v-128.882c0-4.104 3.321-7.434 7.425-7.444l37.888-.099c26.477-.034 47.923-21.528 47.923-48.03v-53.988c0-4.408-3.573-7.981-7.981-7.981z" fill="#e19974" data-original="#e19974" style="" class=""/>
        <g fill="#d77f4a">
          <path d="m250.444 140.337v184.362c0 9.112 7.387 16.499 16.499 16.499h19.179c8.411 0 15.247-6.666 15.558-15h-22.792c-4.111 0-7.444-3.333-7.444-7.444v-193.417h-41.969v15z" fill="#d77f4a" data-original="#d77f4a" style="" class=""/>
          <path d="m137.753 266.173c10.369 0 18.774 8.405 18.774 18.774 0 8.601 6.972 15.573 15.573 15.573h28.93c4.111 0 7.444-3.333 7.444-7.444v-7.556h-15.375c-8.601 0-15.573-6.972-15.573-15.573v-32.793c0-4.408-3.573-7.981-7.981-7.981h-26.015c-4.404 0-7.973 3.57-7.973 7.973v29.027z" fill="#d77f4a" data-original="#d77f4a" style="" class=""/>
          <path d="m356.698 258.076h-26.015c-4.404 0-7.973 3.57-7.973 7.973v45.027c11.581 0 20.97 9.388 20.97 20.97v3c0 11.432-3.997 21.926-10.66 30.174 18.465-6.687 31.66-24.387 31.66-45.174v-53.988c-.001-4.409-3.574-7.982-7.982-7.982z" fill="#d77f4a" data-original="#d77f4a" style="" class=""/>
          <path d="m271.444 383.138c-11.607.03-21 9.448-21 21.055v100.307h21z" fill="#d77f4a" data-original="#d77f4a" style="" class=""/>
        </g>
        <path d="m349.04 106.52c0 54.69-44.29 99.02-98.92 99.02-54.64 0-98.93-44.33-98.93-99.02 0-28.78 12.27-54.7 31.85-72.78 17.64-16.29 41.2-26.24 67.08-26.24 45.96 0 84.6 31.38 95.71 73.9 2.09 8.02 3.21 16.44 3.21 25.12z" fill="#fd9644" data-original="#af66da" style="" class=""/>
        <path d="m250.118 8.33c-4.614 0-9.152.323-13.598.935 15.045 2.071 29.01 7.528 41.103 15.578 9.286 6.182 22.522 14.572 29.873 31.138 2.994 6.749 11.304 25.478 1.504 39.019-7.428 10.263-22.089 13.164-33 11-14.557-2.888-14.423-13.201-34-27-3.966-2.796-25.846-17.791-56-19-9.944-.399-18.24.804-24 2-3.671 2.668-10.141 7.303-12.31 15.361-1.599 5.941 1.5 12.052 1.5 29.159 0 51.075 38.631 93.11 88.244 98.443-.969.163-1.934.335-2.912.469 4.446.612 8.983.935 13.597.935 54.634 0 98.924-44.332 98.924-99.019-.001-54.685-44.291-99.018-98.925-99.018z" fill="#fa8231" data-original="#9857bd" style="" class=""/>
        <ellipse cx="162.424" cy="161.113" fill="#f7b731" rx="98.924" ry="99.019" data-original="#bd80e1" style="" class=""/>
        <path d="m220.197 80.979c8.733 14.76 13.752 31.982 13.752 50.38 0 54.687-44.29 99.019-98.924 99.019-21.567 0-41.518-6.913-57.773-18.639 17.225 29.114 48.918 48.639 85.172 48.639 54.634 0 98.924-44.332 98.924-99.019-.001-33.099-16.229-62.4-41.151-80.38z" fill="#fd9644" data-original="#af66da" style="" class=""/>
        <ellipse cx="349.576" cy="210.355" fill="#fed330" rx="98.924" ry="99.019" data-original="#cb97e7" style="" class=""/>
        <path d="m406.771 129.569c8.887 14.853 14 32.228 14 50.8 0 54.687-44.29 99.019-98.924 99.019-21.31 0-41.046-6.746-57.194-18.219 17.281 28.882 48.844 48.219 84.924 48.219 54.634 0 98.924-44.332 98.924-99.019-.001-33.356-16.479-62.859-41.73-80.8z" fill="#f7b731" data-original="#bd80e1" style="" class=""/>
      </g>
      <path d="m356.509 104.068c-1.307-57.607-48.528-104.068-106.389-104.068-38.968 0-74.198 20.86-93.016 54.733-26.048 1.278-50.474 11.947-69.201 30.333-2.956 2.901-3 7.65-.097 10.605 2.901 2.956 7.65 3 10.606.098 17.014-16.704 39.502-25.998 63.322-26.17.042 0 .084-.002.126-.003.03-.001.059-.001.089-.002.012 0 .024 0 .036-.001.141-.007.288-.005.435-.004 50.415 0 91.43 41.056 91.43 91.521 0 .906-.021 1.86-.051 2.832-5.893 12.133-9.545 25.548-10.429 39.702-4.868 9.281-11.238 17.614-18.988 24.766-13.429 12.402-30.022 20.409-47.995 23.158-4.572.704-9.271 1.062-13.967 1.062-8.434 0-16.786-1.15-24.827-3.419-39.209-11.043-66.593-47.271-66.593-88.101 0-14.769 3.404-28.863 10.119-41.893 1.897-3.682.451-8.205-3.231-10.103-3.684-1.899-8.206-.45-10.103 3.231-7.71 14.963-11.785 31.825-11.785 48.765 0 45.595 29.362 86.245 72.06 100.817v17.443c0 30.573 24.856 55.484 55.4 55.53l38.51.1v59.899c0 4.143 3.358 7.5 7.5 7.5s7.5-3.357 7.5-7.5v-67.38c0-4.135-3.346-7.489-7.48-7.5l-45.999-.119c-22.294-.033-40.431-18.216-40.431-40.53v-13.518c6.362 1.172 12.84 1.777 19.36 1.777 2.54 0 5.082-.099 7.61-.278v2.578c0 12.731 10.349 23.09 23.07 23.09h36.37c4.142 0 7.5-3.357 7.5-7.5v-48.416c2.743-2.693 5.336-5.511 7.757-8.462 2.878 16.583 9.601 31.861 19.212 44.88v52.679c0 4.143 3.358 7.5 7.5 7.5h35.7c11.214 0 20.581-8.052 22.643-18.681 6.416 1.213 13.03 1.855 19.793 1.855 2.557 0 5.092-.096 7.604-.275v3.451c0 22.314-18.138 40.496-40.438 40.53l-45.32.11c-4.135.01-7.482 3.365-7.482 7.5v128.81h-26.97v-72.947c0-4.143-3.358-7.5-7.5-7.5s-7.5 3.357-7.5 7.5v72.947h-71.289c-4.142 0-7.5 3.357-7.5 7.5s3.358 7.5 7.5 7.5h198.624c4.142 0 7.5-3.357 7.5-7.5s-3.358-7.5-7.5-7.5h-70.364v-121.328l37.831-.092c30.553-.046 55.409-24.957 55.409-55.53v-5.602c47.86-10.402 83.82-53.12 83.82-104.092 0-56.404-44.029-102.7-99.491-106.288zm-134.539 173.952h-28.87c-4.45 0-8.07-3.629-8.07-8.09v-4.725c13.252-2.861 25.754-8.205 36.94-15.788zm-47.612-222.756c16.888-25.09 44.965-40.264 75.762-40.264 49.615 0 90.124 39.771 91.389 89.14-29.844 2.249-56.291 16.874-74.224 38.746-7.997-46.231-45.87-82.341-92.927-87.622zm132.782 263.436h-28.2v-28.746c10.451 9.302 22.737 16.58 36.242 21.209-.285 4.203-3.778 7.537-8.042 7.537zm42.436-16.826c-50.411 0-91.423-41.055-91.423-91.519 0-1.142.028-2.276.07-3.408.009-.046.018-.091.026-.137.021-.123.034-.246.049-.37.015-.12.032-.24.041-.361.009-.118.009-.235.012-.353.003-.128.009-.255.006-.383-.003-.115-.014-.229-.022-.343-.004-.053-.005-.105-.01-.158 2.843-47.645 42.26-85.584 90.462-85.996.047.001.094.004.141.004.05 0 .099-.006.15-.007.167-.001.333-.006.5-.006 50.411 0 91.424 41.056 91.424 91.52s-41.015 91.517-91.426 91.517z" fill="#000000" data-original="#000000" style="" class=""/>
    </g>
  </g>
</svg>
