<?xml version="1.0" encoding="UTF-8"?>
<svg xmlns="http://www.w3.org/2000/svg" xmlns:xlink="http://www.w3.org/1999/xlink" xmlns:svgjs="http://svgjs.com/svgjs" version="1.1" width="512" height="512" x="0" y="0" viewBox="0 0 512 512" style="enable-background:new 0 0 512 512" xml:space="preserve" class="">
  <g>
    <g xmlns="http://www.w3.org/2000/svg">
      <g>
        <path d="m229.349 308.393h53.402v196.359h-53.402z" fill="#e19974" data-original="#e19974" style=""/>
        <path d="m258.839 284.482v42.938c-5.384-3.577-11.842-5.666-18.79-5.666-3.773 0-7.399.624-10.79 1.758v64.483c3.391 1.135 7.017 1.758 10.79 1.758.762 0 1.518-.025 2.268-.075 8.948-.59 16.522 6.519 16.522 15.487v100.088h24v-220.771z" fill="#d77f4a" data-original="#d77f4a" style=""/>
        <path d="m376.549 184.261c0 97.483-23.697 176.509-121.031 176.509s-119.969-79.026-119.969-176.509 22.636-176.509 119.97-176.509 121.03 79.025 121.03 176.509z" fill="#fd9644" data-original="#fea95c" style="" class=""/>
        <path d="m193.049 303.754c-13.275 0-26.225-1.384-38.722-4.001 17.062 37.374 47.953 61.016 101.191 61.016 97.333 0 121.031-79.026 121.031-176.509 0-8.48-.184-16.816-.576-24.976-19.639 82.839-94.079 144.47-182.924 144.47z" fill="#fa8231" data-original="#fe860a" style="" class=""/>
      </g>
      <path d="m355.065 497h-65.08c.161-.964.265-1.948.265-2.957v-55.728c-.339-9.915-14.652-9.939-15 0v55.727c0 1.622-1.312 2.941-2.931 2.957h-32.539c-1.619-.016-2.931-1.335-2.931-2.957v-127.052c12.046 1.399 26.322 1.371 38.4-.131v39.462c0 4.142 3.358 7.5 7.5 7.5s7.5-3.358 7.5-7.5v-42.111c78.676-20.801 92.507-93.517 93.801-180.2-.001-56.784-8.175-98.819-24.991-128.508-20.858-36.828-55.694-55.502-103.54-55.502-31.708 0-57.792 8.23-77.529 24.461-17.936 14.75-30.653 35.603-38.881 63.751-2.435 9.673 11.293 13.612 14.398 4.208 7.354-25.161 18.479-43.601 34.011-56.374 17.22-14.162 39.464-21.046 68.001-21.046 42.637 0 72.236 15.667 90.489 47.895 30.776 47.557 30.764 194.671-.001 242.229-18.252 32.228-47.851 47.894-90.488 47.894-42.547 0-71.966-15.653-89.936-47.853-22.449-34.066-27.098-128.311-18.773-181.062 1.078-9.854-13.064-11.942-14.848-2.141-8.262 81.396-13.728 218.402 89.887 242.524v129.557c0 1.009.104 1.993.265 2.957h-65.08c-9.875.319-9.974 14.643 0 15h198.031c9.859-.312 9.988-14.638 0-15z" fill="#000000" data-original="#000000" style="" class=""/>
    </g>
  </g>
</svg>
